<mxfile host="app.diagrams.net" modified="2023-04-18T13:26:45.674Z" agent="Mozilla/5.0 (Windows NT 10.0; Win64; x64) AppleWebKit/537.36 (KHTML, like Gecko) Chrome/112.0.0.0 Safari/537.36" etag="6FoTi0ag45nUkJN3MH5w" version="21.1.8" type="github">
  <diagram name="第 1 页" id="LTJ2oz43JgtyBi1cy7fk">
    <mxGraphModel dx="1050" dy="573" grid="1" gridSize="10" guides="1" tooltips="1" connect="1" arrows="1" fold="1" page="1" pageScale="1" pageWidth="827" pageHeight="1169" math="0" shadow="0">
      <root>
        <mxCell id="0" />
        <mxCell id="1" parent="0" />
        <mxCell id="_ZAGBANvf4vX7nTQesjD-38" value="" style="rounded=0;whiteSpace=wrap;html=1;" vertex="1" parent="1">
          <mxGeometry x="57" y="95" width="656" height="470" as="geometry" />
        </mxCell>
        <mxCell id="_ZAGBANvf4vX7nTQesjD-1" value="用户" style="shape=umlActor;verticalLabelPosition=bottom;verticalAlign=top;html=1;outlineConnect=0;" vertex="1" parent="1">
          <mxGeometry x="440" y="330" width="30" height="60" as="geometry" />
        </mxCell>
        <mxCell id="_ZAGBANvf4vX7nTQesjD-4" value="注册登录" style="ellipse;whiteSpace=wrap;html=1;" vertex="1" parent="1">
          <mxGeometry x="260" y="300" width="86" height="60" as="geometry" />
        </mxCell>
        <mxCell id="_ZAGBANvf4vX7nTQesjD-6" value="" style="endArrow=classic;html=1;rounded=0;entryX=0.93;entryY=0.75;entryDx=0;entryDy=0;exitX=0.5;exitY=0.5;exitDx=0;exitDy=0;exitPerimeter=0;entryPerimeter=0;" edge="1" parent="1" source="_ZAGBANvf4vX7nTQesjD-1" target="_ZAGBANvf4vX7nTQesjD-4">
          <mxGeometry width="50" height="50" relative="1" as="geometry">
            <mxPoint x="230" y="310" as="sourcePoint" />
            <mxPoint x="280" y="260" as="targetPoint" />
          </mxGeometry>
        </mxCell>
        <mxCell id="_ZAGBANvf4vX7nTQesjD-7" value="教师" style="shape=umlActor;verticalLabelPosition=bottom;verticalAlign=top;html=1;outlineConnect=0;" vertex="1" parent="1">
          <mxGeometry x="170" y="220" width="30" height="60" as="geometry" />
        </mxCell>
        <mxCell id="_ZAGBANvf4vX7nTQesjD-10" value="管理员" style="shape=umlActor;verticalLabelPosition=bottom;verticalAlign=top;html=1;outlineConnect=0;" vertex="1" parent="1">
          <mxGeometry x="370" y="190" width="30" height="60" as="geometry" />
        </mxCell>
        <mxCell id="_ZAGBANvf4vX7nTQesjD-11" value="" style="endArrow=classic;html=1;rounded=0;exitX=0.5;exitY=0.5;exitDx=0;exitDy=0;exitPerimeter=0;" edge="1" parent="1" source="_ZAGBANvf4vX7nTQesjD-7" target="_ZAGBANvf4vX7nTQesjD-4">
          <mxGeometry width="50" height="50" relative="1" as="geometry">
            <mxPoint x="50" y="330" as="sourcePoint" />
            <mxPoint x="100" y="280" as="targetPoint" />
          </mxGeometry>
        </mxCell>
        <mxCell id="_ZAGBANvf4vX7nTQesjD-12" value="" style="endArrow=classic;html=1;rounded=0;entryX=1;entryY=0;entryDx=0;entryDy=0;exitX=0.5;exitY=0.5;exitDx=0;exitDy=0;exitPerimeter=0;" edge="1" parent="1" source="_ZAGBANvf4vX7nTQesjD-10" target="_ZAGBANvf4vX7nTQesjD-4">
          <mxGeometry width="50" height="50" relative="1" as="geometry">
            <mxPoint x="310" y="240" as="sourcePoint" />
            <mxPoint x="360" y="190" as="targetPoint" />
          </mxGeometry>
        </mxCell>
        <mxCell id="_ZAGBANvf4vX7nTQesjD-14" value="宣教信息管理" style="ellipse;whiteSpace=wrap;html=1;" vertex="1" parent="1">
          <mxGeometry x="470" y="120" width="86" height="60" as="geometry" />
        </mxCell>
        <mxCell id="_ZAGBANvf4vX7nTQesjD-15" value="班级管理管理" style="ellipse;whiteSpace=wrap;html=1;" vertex="1" parent="1">
          <mxGeometry x="210" y="120" width="86" height="60" as="geometry" />
        </mxCell>
        <mxCell id="_ZAGBANvf4vX7nTQesjD-16" value="" style="endArrow=classic;html=1;rounded=0;entryX=0.5;entryY=1;entryDx=0;entryDy=0;exitX=0.5;exitY=0.5;exitDx=0;exitDy=0;exitPerimeter=0;" edge="1" parent="1" source="_ZAGBANvf4vX7nTQesjD-7" target="_ZAGBANvf4vX7nTQesjD-15">
          <mxGeometry width="50" height="50" relative="1" as="geometry">
            <mxPoint x="80" y="270" as="sourcePoint" />
            <mxPoint x="130" y="220" as="targetPoint" />
          </mxGeometry>
        </mxCell>
        <mxCell id="_ZAGBANvf4vX7nTQesjD-17" value="" style="endArrow=classic;html=1;rounded=0;entryX=0;entryY=1;entryDx=0;entryDy=0;exitX=0.5;exitY=0.5;exitDx=0;exitDy=0;exitPerimeter=0;" edge="1" parent="1" source="_ZAGBANvf4vX7nTQesjD-10" target="_ZAGBANvf4vX7nTQesjD-14">
          <mxGeometry width="50" height="50" relative="1" as="geometry">
            <mxPoint x="490" y="260" as="sourcePoint" />
            <mxPoint x="540" y="210" as="targetPoint" />
          </mxGeometry>
        </mxCell>
        <mxCell id="_ZAGBANvf4vX7nTQesjD-19" value="视力信息录入" style="ellipse;whiteSpace=wrap;html=1;" vertex="1" parent="1">
          <mxGeometry x="73" y="440" width="86" height="60" as="geometry" />
        </mxCell>
        <mxCell id="_ZAGBANvf4vX7nTQesjD-20" value="宣教信息查看" style="ellipse;whiteSpace=wrap;html=1;" vertex="1" parent="1">
          <mxGeometry x="490" y="240" width="86" height="60" as="geometry" />
        </mxCell>
        <mxCell id="_ZAGBANvf4vX7nTQesjD-21" value="视力信息查看" style="ellipse;whiteSpace=wrap;html=1;" vertex="1" parent="1">
          <mxGeometry x="184" y="440" width="86" height="60" as="geometry" />
        </mxCell>
        <mxCell id="_ZAGBANvf4vX7nTQesjD-22" value="视力疾病录入" style="ellipse;whiteSpace=wrap;html=1;" vertex="1" parent="1">
          <mxGeometry x="287" y="440" width="86" height="60" as="geometry" />
        </mxCell>
        <mxCell id="_ZAGBANvf4vX7nTQesjD-23" value="视力疾病录入" style="ellipse;whiteSpace=wrap;html=1;" vertex="1" parent="1">
          <mxGeometry x="393" y="440" width="86" height="60" as="geometry" />
        </mxCell>
        <mxCell id="_ZAGBANvf4vX7nTQesjD-24" value="班级信息录入" style="ellipse;whiteSpace=wrap;html=1;" vertex="1" parent="1">
          <mxGeometry x="556" y="350" width="86" height="60" as="geometry" />
        </mxCell>
        <mxCell id="_ZAGBANvf4vX7nTQesjD-25" value="里程碑查看" style="ellipse;whiteSpace=wrap;html=1;" vertex="1" parent="1">
          <mxGeometry x="489" y="440" width="86" height="60" as="geometry" />
        </mxCell>
        <mxCell id="_ZAGBANvf4vX7nTQesjD-26" value="邮箱修改" style="ellipse;whiteSpace=wrap;html=1;" vertex="1" parent="1">
          <mxGeometry x="586" y="440" width="86" height="60" as="geometry" />
        </mxCell>
        <mxCell id="_ZAGBANvf4vX7nTQesjD-27" value="密码修改" style="ellipse;whiteSpace=wrap;html=1;" vertex="1" parent="1">
          <mxGeometry x="98" y="330" width="86" height="60" as="geometry" />
        </mxCell>
        <mxCell id="_ZAGBANvf4vX7nTQesjD-28" value="" style="endArrow=classic;html=1;rounded=0;exitX=0.5;exitY=0.5;exitDx=0;exitDy=0;exitPerimeter=0;" edge="1" parent="1" source="_ZAGBANvf4vX7nTQesjD-7" target="_ZAGBANvf4vX7nTQesjD-27">
          <mxGeometry width="50" height="50" relative="1" as="geometry">
            <mxPoint x="90" y="330" as="sourcePoint" />
            <mxPoint x="140" y="280" as="targetPoint" />
          </mxGeometry>
        </mxCell>
        <mxCell id="_ZAGBANvf4vX7nTQesjD-29" value="" style="endArrow=classic;html=1;rounded=0;entryX=1;entryY=0;entryDx=0;entryDy=0;exitX=0.5;exitY=0.5;exitDx=0;exitDy=0;exitPerimeter=0;" edge="1" parent="1" source="_ZAGBANvf4vX7nTQesjD-1" target="_ZAGBANvf4vX7nTQesjD-19">
          <mxGeometry width="50" height="50" relative="1" as="geometry">
            <mxPoint x="300" y="430" as="sourcePoint" />
            <mxPoint x="350" y="380" as="targetPoint" />
          </mxGeometry>
        </mxCell>
        <mxCell id="_ZAGBANvf4vX7nTQesjD-31" value="" style="endArrow=classic;html=1;rounded=0;exitX=0.5;exitY=0.5;exitDx=0;exitDy=0;exitPerimeter=0;entryX=0.656;entryY=0.043;entryDx=0;entryDy=0;entryPerimeter=0;" edge="1" parent="1" source="_ZAGBANvf4vX7nTQesjD-1" target="_ZAGBANvf4vX7nTQesjD-21">
          <mxGeometry width="50" height="50" relative="1" as="geometry">
            <mxPoint x="414" y="380" as="sourcePoint" />
            <mxPoint x="394" y="431" as="targetPoint" />
          </mxGeometry>
        </mxCell>
        <mxCell id="_ZAGBANvf4vX7nTQesjD-32" value="" style="endArrow=classic;html=1;rounded=0;exitX=0.5;exitY=0.5;exitDx=0;exitDy=0;exitPerimeter=0;entryX=0.751;entryY=0.097;entryDx=0;entryDy=0;entryPerimeter=0;" edge="1" parent="1" source="_ZAGBANvf4vX7nTQesjD-1" target="_ZAGBANvf4vX7nTQesjD-22">
          <mxGeometry width="50" height="50" relative="1" as="geometry">
            <mxPoint x="193" y="300" as="sourcePoint" />
            <mxPoint x="173" y="351" as="targetPoint" />
          </mxGeometry>
        </mxCell>
        <mxCell id="_ZAGBANvf4vX7nTQesjD-33" value="" style="endArrow=classic;html=1;rounded=0;entryX=0;entryY=1;entryDx=0;entryDy=0;exitX=0.5;exitY=0.5;exitDx=0;exitDy=0;exitPerimeter=0;" edge="1" parent="1" source="_ZAGBANvf4vX7nTQesjD-1" target="_ZAGBANvf4vX7nTQesjD-20">
          <mxGeometry width="50" height="50" relative="1" as="geometry">
            <mxPoint x="450" y="360" as="sourcePoint" />
            <mxPoint x="350" y="355" as="targetPoint" />
          </mxGeometry>
        </mxCell>
        <mxCell id="_ZAGBANvf4vX7nTQesjD-34" value="" style="endArrow=classic;html=1;rounded=0;" edge="1" parent="1" target="_ZAGBANvf4vX7nTQesjD-24">
          <mxGeometry width="50" height="50" relative="1" as="geometry">
            <mxPoint x="450" y="360" as="sourcePoint" />
            <mxPoint x="540" y="320" as="targetPoint" />
          </mxGeometry>
        </mxCell>
        <mxCell id="_ZAGBANvf4vX7nTQesjD-35" value="" style="endArrow=classic;html=1;rounded=0;entryX=0.27;entryY=-0.023;entryDx=0;entryDy=0;entryPerimeter=0;" edge="1" parent="1" target="_ZAGBANvf4vX7nTQesjD-26">
          <mxGeometry width="50" height="50" relative="1" as="geometry">
            <mxPoint x="450" y="360" as="sourcePoint" />
            <mxPoint x="540" y="390" as="targetPoint" />
          </mxGeometry>
        </mxCell>
        <mxCell id="_ZAGBANvf4vX7nTQesjD-36" value="" style="endArrow=classic;html=1;rounded=0;entryX=0.5;entryY=0;entryDx=0;entryDy=0;" edge="1" parent="1" target="_ZAGBANvf4vX7nTQesjD-23">
          <mxGeometry width="50" height="50" relative="1" as="geometry">
            <mxPoint x="455" y="360" as="sourcePoint" />
            <mxPoint x="50" y="260" as="targetPoint" />
          </mxGeometry>
        </mxCell>
        <mxCell id="_ZAGBANvf4vX7nTQesjD-37" value="" style="endArrow=classic;html=1;rounded=0;entryX=0.5;entryY=0;entryDx=0;entryDy=0;" edge="1" parent="1" target="_ZAGBANvf4vX7nTQesjD-25">
          <mxGeometry width="50" height="50" relative="1" as="geometry">
            <mxPoint x="450" y="360" as="sourcePoint" />
            <mxPoint x="100" y="240" as="targetPoint" />
          </mxGeometry>
        </mxCell>
        <mxCell id="_ZAGBANvf4vX7nTQesjD-39" value="" style="endArrow=classic;html=1;rounded=0;entryX=1;entryY=0.5;entryDx=0;entryDy=0;" edge="1" parent="1" target="_ZAGBANvf4vX7nTQesjD-27">
          <mxGeometry width="50" height="50" relative="1" as="geometry">
            <mxPoint x="450" y="360" as="sourcePoint" />
            <mxPoint x="270" y="370" as="targetPoint" />
          </mxGeometry>
        </mxCell>
      </root>
    </mxGraphModel>
  </diagram>
</mxfile>
